<mxfile host="app.diagrams.net" agent="Mozilla/5.0 (Windows NT 10.0; Win64; x64) AppleWebKit/537.36 (KHTML, like Gecko) Chrome/136.0.0.0 Safari/537.36 Edg/136.0.0.0" version="27.0.5">
  <diagram name="第 1 页" id="O4QdDJJ1u8xYRz2MLZ4-">
    <mxGraphModel dx="980" dy="546" grid="1" gridSize="10" guides="1" tooltips="1" connect="1" arrows="1" fold="1" page="1" pageScale="1" pageWidth="827" pageHeight="1169" math="0" shadow="0">
      <root>
        <mxCell id="0" />
        <mxCell id="1" parent="0" />
        <mxCell id="Ut_82Edt7kSHcGcDAXCu-7" value="" style="endArrow=none;dashed=1;html=1;dashPattern=1 3;strokeWidth=2;rounded=0;" edge="1" parent="1" source="Ut_82Edt7kSHcGcDAXCu-37">
          <mxGeometry width="50" height="50" relative="1" as="geometry">
            <mxPoint x="320" y="800" as="sourcePoint" />
            <mxPoint x="320" y="480" as="targetPoint" />
          </mxGeometry>
        </mxCell>
        <mxCell id="Ut_82Edt7kSHcGcDAXCu-14" value="contiainer" style="edgeLabel;html=1;align=center;verticalAlign=middle;resizable=0;points=[];" vertex="1" connectable="0" parent="Ut_82Edt7kSHcGcDAXCu-7">
          <mxGeometry x="0.9145" y="-2" relative="1" as="geometry">
            <mxPoint x="-2" y="-4" as="offset" />
          </mxGeometry>
        </mxCell>
        <mxCell id="Ut_82Edt7kSHcGcDAXCu-15" value="KMD" style="edgeLabel;html=1;align=center;verticalAlign=middle;resizable=0;points=[];" vertex="1" connectable="0" parent="Ut_82Edt7kSHcGcDAXCu-7">
          <mxGeometry x="0.9145" y="-2" relative="1" as="geometry">
            <mxPoint x="158" y="-4" as="offset" />
          </mxGeometry>
        </mxCell>
        <mxCell id="Ut_82Edt7kSHcGcDAXCu-8" value="" style="endArrow=none;dashed=1;html=1;dashPattern=1 3;strokeWidth=2;rounded=0;" edge="1" parent="1" source="Ut_82Edt7kSHcGcDAXCu-28">
          <mxGeometry width="50" height="50" relative="1" as="geometry">
            <mxPoint x="480" y="800" as="sourcePoint" />
            <mxPoint x="480" y="500" as="targetPoint" />
          </mxGeometry>
        </mxCell>
        <mxCell id="Ut_82Edt7kSHcGcDAXCu-10" value="" style="endArrow=classic;html=1;rounded=0;" edge="1" parent="1">
          <mxGeometry width="50" height="50" relative="1" as="geometry">
            <mxPoint x="160" y="480" as="sourcePoint" />
            <mxPoint x="600" y="480" as="targetPoint" />
          </mxGeometry>
        </mxCell>
        <mxCell id="Ut_82Edt7kSHcGcDAXCu-11" value="" style="endArrow=classic;html=1;rounded=0;" edge="1" parent="1">
          <mxGeometry width="50" height="50" relative="1" as="geometry">
            <mxPoint x="160" y="480" as="sourcePoint" />
            <mxPoint x="160" y="800" as="targetPoint" />
          </mxGeometry>
        </mxCell>
        <mxCell id="Ut_82Edt7kSHcGcDAXCu-12" value="time" style="text;html=1;align=center;verticalAlign=middle;whiteSpace=wrap;rounded=0;" vertex="1" parent="1">
          <mxGeometry x="110" y="780" width="60" height="30" as="geometry" />
        </mxCell>
        <mxCell id="Ut_82Edt7kSHcGcDAXCu-13" value="call stack" style="text;html=1;align=center;verticalAlign=middle;whiteSpace=wrap;rounded=0;" vertex="1" parent="1">
          <mxGeometry x="560" y="450" width="60" height="30" as="geometry" />
        </mxCell>
        <mxCell id="Ut_82Edt7kSHcGcDAXCu-16" value="3.kill all other process（open mxcd）" style="text;html=1;align=center;verticalAlign=middle;whiteSpace=wrap;rounded=0;" vertex="1" parent="1">
          <mxGeometry x="170" y="585" width="130" height="30" as="geometry" />
        </mxCell>
        <mxCell id="Ut_82Edt7kSHcGcDAXCu-17" value="" style="ellipse;whiteSpace=wrap;html=1;" vertex="1" parent="1">
          <mxGeometry x="310" y="590" width="20" height="20" as="geometry" />
        </mxCell>
        <mxCell id="Ut_82Edt7kSHcGcDAXCu-18" value="1.open mxcd and call block ioctl&lt;div&gt;to block new proc create&lt;/div&gt;" style="text;html=1;align=center;verticalAlign=middle;whiteSpace=wrap;rounded=0;" vertex="1" parent="1">
          <mxGeometry x="180" y="520" width="125" height="30" as="geometry" />
        </mxCell>
        <mxCell id="Ut_82Edt7kSHcGcDAXCu-19" value="" style="ellipse;whiteSpace=wrap;html=1;" vertex="1" parent="1">
          <mxGeometry x="310" y="525" width="20" height="20" as="geometry" />
        </mxCell>
        <mxCell id="Ut_82Edt7kSHcGcDAXCu-20" value="" style="ellipse;whiteSpace=wrap;html=1;" vertex="1" parent="1">
          <mxGeometry x="470" y="525" width="20" height="20" as="geometry" />
        </mxCell>
        <mxCell id="Ut_82Edt7kSHcGcDAXCu-22" value="&lt;div&gt;2.kmd forbiden new process create&lt;/div&gt;" style="text;html=1;align=left;verticalAlign=middle;whiteSpace=wrap;rounded=0;" vertex="1" parent="1">
          <mxGeometry x="500" y="520" width="200" height="30" as="geometry" />
        </mxCell>
        <mxCell id="Ut_82Edt7kSHcGcDAXCu-23" value="" style="endArrow=classic;html=1;rounded=0;exitX=1;exitY=0;exitDx=0;exitDy=0;" edge="1" parent="1" source="Ut_82Edt7kSHcGcDAXCu-19">
          <mxGeometry width="50" height="50" relative="1" as="geometry">
            <mxPoint x="480" y="570" as="sourcePoint" />
            <mxPoint x="470" y="528" as="targetPoint" />
          </mxGeometry>
        </mxCell>
        <mxCell id="Ut_82Edt7kSHcGcDAXCu-24" value="" style="endArrow=classic;html=1;rounded=0;entryX=1;entryY=1;entryDx=0;entryDy=0;exitX=0;exitY=1;exitDx=0;exitDy=0;" edge="1" parent="1" source="Ut_82Edt7kSHcGcDAXCu-20" target="Ut_82Edt7kSHcGcDAXCu-19">
          <mxGeometry width="50" height="50" relative="1" as="geometry">
            <mxPoint x="470" y="550" as="sourcePoint" />
            <mxPoint x="530" y="520" as="targetPoint" />
          </mxGeometry>
        </mxCell>
        <mxCell id="Ut_82Edt7kSHcGcDAXCu-29" value="4.call&amp;nbsp; ioctl&lt;div&gt;check no other&lt;/div&gt;&lt;div&gt;process exist&lt;/div&gt;" style="text;html=1;align=center;verticalAlign=middle;whiteSpace=wrap;rounded=0;" vertex="1" parent="1">
          <mxGeometry x="140" y="650" width="170" height="20" as="geometry" />
        </mxCell>
        <mxCell id="Ut_82Edt7kSHcGcDAXCu-30" value="" style="ellipse;whiteSpace=wrap;html=1;" vertex="1" parent="1">
          <mxGeometry x="310" y="720" width="20" height="20" as="geometry" />
        </mxCell>
        <mxCell id="Ut_82Edt7kSHcGcDAXCu-31" value="6.unbind card from&lt;div&gt;metax drive&lt;span style=&quot;background-color: transparent; color: light-dark(rgb(0, 0, 0), rgb(255, 255, 255));&quot;&gt;r&lt;/span&gt;&lt;/div&gt;" style="text;html=1;align=center;verticalAlign=middle;whiteSpace=wrap;rounded=0;" vertex="1" parent="1">
          <mxGeometry x="150" y="720" width="160" height="20" as="geometry" />
        </mxCell>
        <mxCell id="Ut_82Edt7kSHcGcDAXCu-33" value="" style="endArrow=none;dashed=1;html=1;dashPattern=1 3;strokeWidth=2;rounded=0;" edge="1" parent="1" target="Ut_82Edt7kSHcGcDAXCu-28">
          <mxGeometry width="50" height="50" relative="1" as="geometry">
            <mxPoint x="480" y="800" as="sourcePoint" />
            <mxPoint x="480" y="500" as="targetPoint" />
          </mxGeometry>
        </mxCell>
        <mxCell id="Ut_82Edt7kSHcGcDAXCu-28" value="" style="ellipse;whiteSpace=wrap;html=1;" vertex="1" parent="1">
          <mxGeometry x="470" y="650" width="20" height="20" as="geometry" />
        </mxCell>
        <mxCell id="Ut_82Edt7kSHcGcDAXCu-38" value="" style="endArrow=none;dashed=1;html=1;dashPattern=1 3;strokeWidth=2;rounded=0;" edge="1" parent="1" target="Ut_82Edt7kSHcGcDAXCu-37">
          <mxGeometry width="50" height="50" relative="1" as="geometry">
            <mxPoint x="320" y="800" as="sourcePoint" />
            <mxPoint x="320" y="480" as="targetPoint" />
          </mxGeometry>
        </mxCell>
        <mxCell id="Ut_82Edt7kSHcGcDAXCu-37" value="" style="ellipse;whiteSpace=wrap;html=1;" vertex="1" parent="1">
          <mxGeometry x="310" y="650" width="20" height="20" as="geometry" />
        </mxCell>
        <mxCell id="Ut_82Edt7kSHcGcDAXCu-41" value="" style="endArrow=classic;html=1;rounded=0;exitX=1;exitY=0;exitDx=0;exitDy=0;entryX=0;entryY=0;entryDx=0;entryDy=0;" edge="1" parent="1" source="Ut_82Edt7kSHcGcDAXCu-37" target="Ut_82Edt7kSHcGcDAXCu-28">
          <mxGeometry width="50" height="50" relative="1" as="geometry">
            <mxPoint x="450" y="650" as="sourcePoint" />
            <mxPoint x="500" y="600" as="targetPoint" />
          </mxGeometry>
        </mxCell>
        <mxCell id="Ut_82Edt7kSHcGcDAXCu-42" value="" style="endArrow=classic;html=1;rounded=0;exitX=0;exitY=1;exitDx=0;exitDy=0;entryX=1;entryY=1;entryDx=0;entryDy=0;" edge="1" parent="1" source="Ut_82Edt7kSHcGcDAXCu-28" target="Ut_82Edt7kSHcGcDAXCu-37">
          <mxGeometry width="50" height="50" relative="1" as="geometry">
            <mxPoint x="450" y="650" as="sourcePoint" />
            <mxPoint x="500" y="600" as="targetPoint" />
          </mxGeometry>
        </mxCell>
        <mxCell id="Ut_82Edt7kSHcGcDAXCu-43" value="&lt;div&gt;5.kmd return no other process exist&lt;/div&gt;" style="text;html=1;align=left;verticalAlign=middle;whiteSpace=wrap;rounded=0;" vertex="1" parent="1">
          <mxGeometry x="500" y="645" width="200" height="30" as="geometry" />
        </mxCell>
        <mxCell id="Ut_82Edt7kSHcGcDAXCu-44" value="7.close mxcd" style="text;html=1;align=center;verticalAlign=middle;whiteSpace=wrap;rounded=0;" vertex="1" parent="1">
          <mxGeometry x="140" y="770" width="170" height="20" as="geometry" />
        </mxCell>
        <mxCell id="Ut_82Edt7kSHcGcDAXCu-45" value="" style="ellipse;whiteSpace=wrap;html=1;" vertex="1" parent="1">
          <mxGeometry x="310" y="770" width="20" height="20" as="geometry" />
        </mxCell>
        <mxCell id="Ut_82Edt7kSHcGcDAXCu-46" value="card1" style="ellipse;whiteSpace=wrap;html=1;aspect=fixed;" vertex="1" parent="1">
          <mxGeometry x="185" y="960" width="50" height="50" as="geometry" />
        </mxCell>
        <mxCell id="Ut_82Edt7kSHcGcDAXCu-47" value="card2" style="ellipse;whiteSpace=wrap;html=1;aspect=fixed;" vertex="1" parent="1">
          <mxGeometry x="305" y="960" width="50" height="50" as="geometry" />
        </mxCell>
        <mxCell id="Ut_82Edt7kSHcGcDAXCu-48" value="card3" style="ellipse;whiteSpace=wrap;html=1;aspect=fixed;" vertex="1" parent="1">
          <mxGeometry x="430" y="960" width="50" height="50" as="geometry" />
        </mxCell>
        <mxCell id="Ut_82Edt7kSHcGcDAXCu-50" style="edgeStyle=orthogonalEdgeStyle;rounded=0;orthogonalLoop=1;jettySize=auto;html=1;exitX=0.5;exitY=1;exitDx=0;exitDy=0;" edge="1" parent="1" source="Ut_82Edt7kSHcGcDAXCu-49" target="Ut_82Edt7kSHcGcDAXCu-46">
          <mxGeometry relative="1" as="geometry" />
        </mxCell>
        <mxCell id="Ut_82Edt7kSHcGcDAXCu-51" style="edgeStyle=orthogonalEdgeStyle;rounded=0;orthogonalLoop=1;jettySize=auto;html=1;" edge="1" parent="1" source="Ut_82Edt7kSHcGcDAXCu-49" target="Ut_82Edt7kSHcGcDAXCu-47">
          <mxGeometry relative="1" as="geometry" />
        </mxCell>
        <mxCell id="Ut_82Edt7kSHcGcDAXCu-49" value="进程1" style="rounded=0;whiteSpace=wrap;html=1;" vertex="1" parent="1">
          <mxGeometry x="210" y="820" width="120" height="40" as="geometry" />
        </mxCell>
        <mxCell id="Ut_82Edt7kSHcGcDAXCu-54" style="edgeStyle=orthogonalEdgeStyle;rounded=0;orthogonalLoop=1;jettySize=auto;html=1;entryX=0.5;entryY=0;entryDx=0;entryDy=0;" edge="1" parent="1" source="Ut_82Edt7kSHcGcDAXCu-52" target="Ut_82Edt7kSHcGcDAXCu-48">
          <mxGeometry relative="1" as="geometry" />
        </mxCell>
        <mxCell id="Ut_82Edt7kSHcGcDAXCu-55" style="edgeStyle=orthogonalEdgeStyle;rounded=0;orthogonalLoop=1;jettySize=auto;html=1;entryX=0.5;entryY=0;entryDx=0;entryDy=0;" edge="1" parent="1" source="Ut_82Edt7kSHcGcDAXCu-52" target="Ut_82Edt7kSHcGcDAXCu-47">
          <mxGeometry relative="1" as="geometry">
            <Array as="points">
              <mxPoint x="405" y="910" />
              <mxPoint x="330" y="910" />
            </Array>
          </mxGeometry>
        </mxCell>
        <mxCell id="Ut_82Edt7kSHcGcDAXCu-52" value="进程2" style="rounded=0;whiteSpace=wrap;html=1;" vertex="1" parent="1">
          <mxGeometry x="360" y="820" width="90" height="40" as="geometry" />
        </mxCell>
        <mxCell id="Ut_82Edt7kSHcGcDAXCu-56" value="" style="shape=flexArrow;endArrow=classic;html=1;rounded=0;entryX=0.922;entryY=0.839;entryDx=0;entryDy=0;entryPerimeter=0;" edge="1" parent="1" target="Ut_82Edt7kSHcGcDAXCu-47">
          <mxGeometry width="50" height="50" relative="1" as="geometry">
            <mxPoint x="400" y="1060" as="sourcePoint" />
            <mxPoint x="540" y="870" as="targetPoint" />
          </mxGeometry>
        </mxCell>
        <mxCell id="Ut_82Edt7kSHcGcDAXCu-57" value="UNBIND this" style="text;html=1;align=center;verticalAlign=middle;whiteSpace=wrap;rounded=0;" vertex="1" parent="1">
          <mxGeometry x="384" y="1060" width="60" height="30" as="geometry" />
        </mxCell>
      </root>
    </mxGraphModel>
  </diagram>
</mxfile>
